<?xml version="1.0" encoding="utf-8"?>
<!-- Generator: Adobe Illustrator 24.2.0, SVG Export Plug-In . SVG Version: 6.00 Build 0)  -->
<svg version="1.1" id="Layer_1" xmlns="http://www.w3.org/2000/svg" xmlns:xlink="http://www.w3.org/1999/xlink" x="0px" y="0px"
	 viewBox="0 0 32 32" style="enable-background:new 0 0 32 32;" xml:space="preserve">
<style type="text/css">
	.st0{fill-rule:evenodd;clip-rule:evenodd;fill:#FFFFFF;}
	.st1{fill-rule:evenodd;clip-rule:evenodd;fill:#005AA9;}
	.st2{fill-rule:evenodd;clip-rule:evenodd;fill:#EC1C24;}
</style>
<circle class="st0" cx="16" cy="16" r="16"/>
<g>
	<path class="st1" d="M26.4,16.4l-2.2-3.2L24,13h2.2l1.5,2.4l0.1-0.1l0.9-1.3c0.2-0.3,0.2-0.7-0.1-1h2.1l-2.4,3.4l0,2.5l0.4,0.5
		h-2.6l0.4-0.5C26.4,18.1,26.4,17.2,26.4,16.4L26.4,16.4z M20.4,13c0.2,0.2,0.2,0.3,0.3,0.5c0,0.2,0,0.2,0,0.4L19,18.7
		c-0.1,0.2-0.2,0.4-0.5,0.6h1.8c-0.1-0.1-0.2-0.3-0.3-0.4c0-0.2,0-0.2,0-0.4l0.4-1.1h2.1l0.3,0.9c0,0.1,0.1,0.2,0.1,0.3
		c0,0.3-0.1,0.6-0.3,0.8h2.8c-0.3-0.2-0.5-0.5-0.7-0.8L22.6,13C22.1,13,21,13,20.4,13L20.4,13z M22.2,16.6h-1.5l0.7-2.1L22.2,16.6
		L22.2,16.6z M14.7,13l1.4,0h0.7h1c0.9,0,1.7,0.8,1.7,1.7V15c0,0.9-0.8,1.7-1.7,1.7l-0.8,0c0.6-0.3,0.9-1,0.8-1.7
		c-0.1-0.5-0.3-1-0.8-1.1l-0.3,0v4.7c0,0.1,0,0.1,0.1,0.2c0.1,0.1,0.2,0.3,0.3,0.4c0,0,0.1,0.1,0.1,0.1h-2.4c0,0,0.1-0.1,0.1-0.1
		c0.1-0.1,0.1-0.2,0.2-0.3c0-0.1,0-0.1,0-0.2v-5.1C15.1,13.3,14.8,13.2,14.7,13z"/>
	<path class="st2" d="M1.4,13h2L5,17.8l1.4-3.9c0-0.2,0-0.2-0.1-0.3c-0.1-0.2-0.2-0.3-0.2-0.5h1.5c-0.1,0.3-0.2,0.7-0.3,1l-1.9,5.5
		c-0.5-0.1-1.1-0.3-1.5-0.7c-0.3-0.3-0.5-0.7-0.6-1.1l-1.6-4.2C1.6,13.3,1.5,13.2,1.4,13L1.4,13z M9.3,15.2v3.4c0,0.1,0,0.2,0.1,0.3
		l0.4,0.5H7.9c0.1-0.2,0.2-0.3,0.3-0.5c0.1-0.1,0.1-0.2,0.1-0.3v-4.7L7.9,13h1.9l3.1,4v-3.2c0-0.2,0-0.2-0.1-0.3
		c-0.1-0.2-0.2-0.3-0.3-0.5h1.9l-0.4,0.5c-0.1,0.1-0.1,0.1-0.1,0.3v5.8c-0.7-0.1-1.4-0.3-1.9-1L9.3,15.2z"/>
</g>
</svg>
